<?xml version="1.0" standalone="no"?>
<!DOCTYPE svg PUBLIC "-//W3C//DTD SVG 20010904//EN"
 "http://www.w3.org/TR/2001/REC-SVG-20010904/DTD/svg10.dtd">
<svg version="1.0" xmlns="http://www.w3.org/2000/svg"
 width="150.000000pt" height="150.000000pt" viewBox="0 0 150.000000 150.000000"
 preserveAspectRatio="xMidYMid meet">
<metadata>
Created by potrace 1.14, written by Peter Selinger 2001-2017
</metadata>
<g transform="translate(0.000000,150.000000) scale(0.100000,-0.100000)"
fill="#000000" stroke="none">
<path d="M445 1408 c-210 -27 -325 -140 -352 -349 -10 -78 -9 -553 1 -629 25
-177 120 -284 289 -326 103 -26 639 -26 736 0 158 41 236 120 278 279 25 96
25 632 -1 734 -42 170 -150 264 -326 289 -74 10 -550 11 -625 2z m645 -88
c149 -35 214 -110 237 -270 9 -60 9 -530 0 -602 -14 -118 -63 -195 -151 -238
-83 -40 -146 -46 -461 -44 -279 1 -323 6 -403 48 -72 37 -118 111 -136 218
-12 74 -14 562 -2 638 23 145 108 229 259 254 96 16 585 14 657 -4z"/>
<path d="M408 969 c-10 -5 -18 -18 -18 -28 0 -17 29 -51 44 -51 7 0 10 -3 51
-38 36 -31 75 -83 75 -101 0 -27 -55 -91 -113 -131 -60 -42 -72 -74 -34 -91
22 -10 32 -7 80 25 127 84 176 190 124 269 -27 42 -91 104 -134 131 -47 29
-51 30 -75 15z"/>
<path d="M788 599 c-22 -12 -24 -52 -4 -68 9 -8 54 -12 118 -12 192 -1 187 -2
200 27 11 23 10 29 -10 45 -19 15 -42 18 -155 18 -73 0 -140 -4 -149 -10z"/>
</g>
</svg>
